<svg width="79" height="92" viewBox="0 0 79 92" fill="none" xmlns="http://www.w3.org/2000/svg">
<path fill-rule="evenodd" clip-rule="evenodd" d="M23.3311 0.498689C24.822 -0.22211 26.5736 -0.158437 28.0078 0.669587L53.6279 15.4616C55.2965 16.4248 57.3698 16.3434 58.958 15.2526L70.5703 7.27603C73.888 4.99728 78.4014 7.37319 78.4014 11.3981V71.2282C78.4013 73.0145 77.4484 74.6651 75.9014 75.5583L49.8174 90.6178C46.4841 92.5423 42.3174 90.1368 42.3174 86.2878V28.7272C42.3172 24.8785 38.1506 22.4731 34.8174 24.3971L19.6133 33.1754C18.0664 34.0686 17.1133 35.7192 17.1133 37.5055V81.0251C17.1131 84.8739 12.9465 87.2795 9.61328 85.3551L2.5 81.2477C0.953086 80.3545 0 78.7039 0 76.9176V14.9137C0.000134185 12.996 1.09763 11.2475 2.82422 10.4128L23.3311 0.498689ZM62.1836 49.7975C62.1836 46.9751 60.2021 45.8306 57.7578 47.2419C55.3137 48.6532 53.333 52.0856 53.333 54.9079C53.3332 57.7299 55.3137 58.8735 57.7578 57.4626C60.202 56.0514 62.1834 52.6199 62.1836 49.7975Z" fill="#E11D48"/>
</svg>
